<svg width="100" height="37" viewBox="0 0 100 37" fill="none" xmlns="http://www.w3.org/2000/svg">
<rect x="1" y="1" width="97" height="35" fill="white"/>
<rect width="36.75" height="36.75" fill="black"/>
<path d="M4.4546 32.2955L32.2955 4.45454M4.4546 32.2955H32.2955M4.4546 32.2955L32.2955 18.8442M4.4546 32.2955L32.2955 11.8058M4.4546 32.2955L32.2955 25.257M4.4546 32.2955L32.2955 7.97376M4.4546 32.2955L32.2955 15.5596M4.4546 32.2955L32.2955 28.8545M4.4546 32.2955L32.2955 22.207M4.4546 32.2955L32.2955 6.17505M4.4546 32.2955L32.2955 9.85068M4.4546 32.2955L32.2955 13.7609M4.4546 32.2955L32.2955 17.2019M4.4546 32.2955L32.2955 20.5647M4.4546 32.2955L32.2955 23.6929M4.4546 32.2955L32.2955 26.9775M4.4546 32.2955L32.2955 30.6532" stroke="#FAEEE8" stroke-width="0.222727" stroke-linecap="round"/>
<path d="M40.8144 22.4773V14.3781H42.2815V21.2474H45.8487V22.4773H40.8144ZM47.1221 22.4773V14.3781H52.3897V15.608H48.5893V17.8068H52.1168V19.0367H48.5893V21.2474H52.4213V22.4773H47.1221ZM53.8865 22.4773V14.3781H56.9237C57.5459 14.3781 58.068 14.4941 58.4898 14.7261C58.9143 14.9581 59.2346 15.2771 59.4508 15.6831C59.6696 16.0865 59.779 16.5453 59.779 17.0594C59.779 17.5788 59.6696 18.0401 59.4508 18.4435C59.2319 18.8469 58.909 19.1646 58.4819 19.3966C58.0548 19.626 57.5288 19.7406 56.904 19.7406H54.891V18.5345H56.7062C57.0701 18.5345 57.368 18.4712 57.6 18.3446C57.832 18.2181 58.0034 18.0441 58.1141 17.8226C58.2275 17.6012 58.2841 17.3467 58.2841 17.0594C58.2841 16.772 58.2275 16.5189 58.1141 16.3001C58.0034 16.0813 57.8307 15.9112 57.596 15.7899C57.364 15.666 57.0648 15.6041 56.6983 15.6041H55.3537V22.4773H53.8865ZM61.1908 22.4773H59.6248L62.4761 14.3781H64.2873L67.1426 22.4773H65.5766L63.4134 16.0391H63.3501L61.1908 22.4773ZM61.2422 19.3017H65.5133V20.4802H61.2422V19.3017ZM68.2094 22.4773V14.3781H71.2466C71.8688 14.3781 72.3908 14.4862 72.8126 14.7024C73.2371 14.9186 73.5574 15.2218 73.7736 15.612C73.9924 15.9995 74.1019 16.4517 74.1019 16.9684C74.1019 17.4878 73.9911 17.9386 73.7697 18.3209C73.5508 18.7006 73.2279 18.9945 72.8008 19.2028C72.3737 19.4085 71.849 19.5113 71.2268 19.5113H69.0636V18.2932H71.0291C71.3929 18.2932 71.6908 18.2431 71.9228 18.143C72.1548 18.0401 72.3262 17.8912 72.4369 17.6961C72.5503 17.4983 72.607 17.2558 72.607 16.9684C72.607 16.681 72.5503 16.4359 72.4369 16.2328C72.3236 16.0272 72.1509 15.8717 71.9189 15.7662C71.6869 15.6581 71.3876 15.6041 71.0212 15.6041H69.6766V22.4773H68.2094ZM72.3934 18.8073L74.3985 22.4773H72.7612L70.7918 18.8073H72.3934ZM75.4524 22.4773V14.3781H76.9196V21.2474H80.4867V22.4773H75.4524ZM81.7601 22.4773V14.3781H87.0277V15.608H83.2273V17.8068H86.7548V19.0367H83.2273V21.2474H87.0594V22.4773H81.7601ZM88.5246 22.4773V14.3781H91.5618C92.184 14.3781 92.706 14.4862 93.1278 14.7024C93.5523 14.9186 93.8726 15.2218 94.0888 15.612C94.3076 15.9995 94.417 16.4517 94.417 16.9684C94.417 17.4878 94.3063 17.9386 94.0848 18.3209C93.866 18.7006 93.543 18.9945 93.1159 19.2028C92.6888 19.4085 92.1642 19.5113 91.542 19.5113H89.3788V18.2932H91.3442C91.7081 18.2932 92.006 18.2431 92.238 18.143C92.47 18.0401 92.6414 17.8912 92.7521 17.6961C92.8655 17.4983 92.9222 17.2558 92.9222 16.9684C92.9222 16.681 92.8655 16.4359 92.7521 16.2328C92.6387 16.0272 92.4661 15.8717 92.2341 15.7662C92.002 15.6581 91.7028 15.6041 91.3363 15.6041H89.9917V22.4773H88.5246ZM92.7086 18.8073L94.7136 22.4773H93.0764L91.107 18.8073H92.7086Z" fill="black"/>
<path d="M40.5339 5.58527V4.35537H46.9958V5.58527H44.4925V12.4545H43.0372V5.58527H40.5339ZM48.2416 12.4545V4.35537H49.7087V7.78407H53.4617V4.35537H54.9329V12.4545H53.4617V9.01398H49.7087V12.4545H48.2416ZM56.5286 12.4545V4.35537H61.7962V5.58527H57.9958V7.78407H61.5233V9.01398H57.9958V11.2246H61.8278V12.4545H56.5286Z" fill="black"/>
<path d="M47.5455 25.5144V33.6136H46.2405L42.4242 28.0969H42.357V33.6136H40.8898V25.5144H42.2028L46.0151 31.0352H46.0863V25.5144H47.5455ZM49.1442 33.6136V25.5144H54.4118V26.7444H50.6114V28.9432H54.139V30.1731H50.6114V32.3837H54.4435V33.6136H49.1442ZM57.6131 33.6136L55.3273 25.5144H56.9053L58.3645 31.4662H58.4397L59.9978 25.5144H61.4334L62.9955 31.4702H63.0666L64.5259 25.5144H66.1038L63.818 33.6136H62.3706L60.7492 27.9308H60.6859L59.0606 33.6136H57.6131ZM71.4684 27.7409C71.4314 27.3956 71.2759 27.1266 71.0017 26.9342C70.7301 26.7417 70.3769 26.6455 69.9418 26.6455C69.636 26.6455 69.3737 26.6916 69.1549 26.7839C68.936 26.8762 68.7686 27.0014 68.6526 27.1596C68.5366 27.3178 68.4773 27.4984 68.4747 27.7014C68.4747 27.8701 68.5129 28.0164 68.5893 28.1404C68.6684 28.2643 68.7752 28.3697 68.9097 28.4567C69.0441 28.5411 69.1931 28.6123 69.3566 28.6703C69.52 28.7283 69.6848 28.7771 69.8509 28.8166L70.6102 29.0064C70.916 29.0776 71.21 29.1738 71.4921 29.2951C71.7768 29.4164 72.0312 29.5693 72.2553 29.7539C72.4821 29.9384 72.6613 30.1612 72.7932 30.4222C72.925 30.6832 72.9909 30.989 72.9909 31.3397C72.9909 31.8142 72.8696 32.2321 72.6271 32.5933C72.3845 32.9519 72.0339 33.2327 71.5751 33.4357C71.119 33.636 70.5667 33.7362 69.9181 33.7362C69.288 33.7362 68.7409 33.6387 68.2769 33.4436C67.8156 33.2485 67.4544 32.9637 67.1933 32.5894C66.935 32.215 66.7952 31.7589 66.7742 31.221H68.2176C68.2387 31.5031 68.3257 31.7378 68.4786 31.925C68.6315 32.1122 68.8306 32.2519 69.0758 32.3442C69.3236 32.4364 69.6004 32.4826 69.9063 32.4826C70.2253 32.4826 70.5047 32.4351 70.7446 32.3402C70.9872 32.2427 71.177 32.1082 71.3141 31.9368C71.4512 31.7628 71.5211 31.5598 71.5237 31.3278C71.5211 31.1169 71.4591 30.9429 71.3378 30.8058C71.2166 30.6661 71.0465 30.5501 70.8277 30.4578C70.6115 30.3629 70.3584 30.2785 70.0684 30.2047L69.147 29.9674C68.4799 29.796 67.9526 29.5364 67.5651 29.1883C67.1802 28.8377 66.9877 28.3724 66.9877 27.7923C66.9877 27.3151 67.1169 26.8973 67.3753 26.5387C67.6363 26.1802 67.9909 25.902 68.4391 25.7043C68.8873 25.5039 69.3948 25.4037 69.9616 25.4037C70.5364 25.4037 71.0399 25.5039 71.4723 25.7043C71.9073 25.902 72.2487 26.1775 72.4966 26.5308C72.7444 26.8814 72.8723 27.2848 72.8802 27.7409H71.4684Z" fill="black"/>
<rect x="36.1932" y="0.556814" width="62.3637" height="35.6364" stroke="black" stroke-width="1.11364"/>
</svg>
